<?xml version="1.0" encoding="UTF-8"?>
<svg version="1.1" xmlns="http://www.w3.org/2000/svg" width="750" height="398">
<path d="M0 0 C6.93 0 13.86 0 21 0 C21.33 11.55 21.66 23.1 22 35 C24.31 33.02 26.62 31.04 29 29 C35.26594973 25.62827588 43.71304184 25.87256376 50.48046875 27.65234375 C57.57507115 30.84971775 61.52108829 36.38255043 64.375 43.4375 C64.9307036 44.95326064 65.47750606 46.4724736 66 48 C66.52787109 47.03900391 66.52787109 47.03900391 67.06640625 46.05859375 C71.81232674 37.74393931 76.61022848 30.95189178 85.9296875 27.66015625 C97.2059287 25.23562093 108.03737601 26.17126015 117.9453125 32.1796875 C123.6895985 36.38221709 126.19031064 42.63960431 129 49 C130.61488722 46.57766917 131.88019257 44.27088226 133.1875 41.6875 C137.08773358 34.70336081 142.40356761 30.4341757 149.9296875 27.6953125 C158.88215643 25.6679086 169.480861 25.55760566 177.85546875 29.609375 C185.39134771 34.49602875 190.46457028 40.97299713 192.6796875 49.66796875 C195.17749752 62.07147742 194.17494839 73.98589635 187.51171875 85.03125 C182.78921212 91.18149119 175.63263901 95.27045055 168.0234375 96.46875 C158.49345574 97.45076217 149.95653312 97.10755615 141.87890625 91.54296875 C135.89621518 86.62994802 132.13199026 81.01565818 129 74 C128.79246094 74.556875 128.58492187 75.11375 128.37109375 75.6875 C125.23390144 83.45828597 120.62191795 90.4143702 112.92578125 94.25390625 C103.46774288 97.91817669 92.5804773 98.1623451 83.125 94.3125 C74.68303346 89.96782491 70.721252 84.67720513 67 76 C65.45553499 78.31669752 64.41830998 80.24816746 63.3125 82.75 C60.12498232 89.09000769 56.04957776 93.61475129 49.25 96 C42.45259982 97.66572516 35.35496324 97.5441314 29.0625 94.25 C26.09699922 92.07126474 24.09115077 90.01125711 22 87 C21.67 89.64 21.34 92.28 21 95 C14.07 95 7.14 95 0 95 C0 63.65 0 32.3 0 0 Z M90 46 C85.34940859 52.03319966 84.3472414 58.78675229 85.2890625 66.30859375 C86.44582721 71.49442876 88.10218766 75.51252546 92.3125 78.8125 C95.60504457 80.26734528 97.43423995 80.58216491 101 80 C105.54280489 77.14961262 107.90792366 74.42589561 109.53125 69.3046875 C111.08011267 61.68944604 110.4135519 54.94901636 107 48 C104.69991052 44.79630394 103.45156177 44.12543382 99.625 43.0625 C95.3411794 42.98864102 93.48677241 43.5205174 90 46 Z M24 48 C20.65562191 54.45810941 20.00290804 60.79878025 21 68 C22.46117158 72.33712834 23.9837694 76.70816363 27.95703125 79.25390625 C32.08318048 80.76077911 35.75407108 80.53801476 39.75 78.8125 C43.4176978 75.85796566 45.09897955 72.55294405 46 68 C46.73526516 58.88753344 46.29925741 52.09541618 40.3125 45 C34.38372495 42.43620538 28.27555598 42.96993414 24 48 Z M155 45 C149.28808495 51.03831019 148.54642097 56.62955294 148.68359375 64.6953125 C149.24218921 70.52953175 150.96567161 75.02379527 155.1875 79.125 C159.30971954 80.4074683 162.87227756 80.26769004 167 79 C171.08084607 75.23306517 172.80831652 70.99038781 173.3359375 65.51171875 C173.65075587 55.04832325 173.65075587 55.04832325 169 46 C163.89033437 42.66307551 160.44152619 42.21287683 155 45 Z " fill="#1A1A1A" transform="translate(399,242)"/>
<path d="M0 0 C0.99 0.33 1.98 0.66 3 1 C4.02734375 3.07421875 4.02734375 3.07421875 4.9375 5.6875 C6.52319928 9.95480656 8.3066746 13.34477268 11 17 C11.845625 16.71125 12.69125 16.4225 13.5625 16.125 C15.2640625 15.568125 15.2640625 15.568125 17 15 C18.051875 14.46375 19.10375 13.9275 20.1875 13.375 C25.64723818 12.83797657 27.8937412 15.15494725 32.0703125 18.48828125 C70.64996581 51.56390402 70.64996581 51.56390402 77 67 C76.67 68.32 76.34 69.64 76 71 C71.71 71.99 67.42 72.98 63 74 C63.86625 74.84304687 64.7325 75.68609375 65.625 76.5546875 C66.75026041 77.66119357 67.87524628 78.76797888 69 79.875 C69.57234375 80.43058594 70.1446875 80.98617187 70.734375 81.55859375 C72.19450782 83.00134404 73.60149298 84.4974374 75 86 C75 86.66 75 87.32 75 88 C74.01 88.66 73.02 89.32 72 90 C72.54269531 90.64066406 73.08539063 91.28132813 73.64453125 91.94140625 C74.35996094 92.80636719 75.07539063 93.67132813 75.8125 94.5625 C76.52019531 95.40941406 77.22789062 96.25632812 77.95703125 97.12890625 C83.96230592 105.5684414 83.22695214 112.70872894 82.79492188 122.75195312 C82.61996875 129.83968821 83.4688476 133.87058282 87 140 C87 141.32 87 142.64 87 144 C79.99490498 143.61008108 73.08174989 142.90988416 66.13378906 141.95751953 C45.43833534 139.12266988 25.06424946 137.81204924 4.1875 137.75 C3.27640472 137.74473297 2.36530945 137.73946594 1.42660522 137.73403931 C-10.26361466 137.68172081 -21.6580869 137.65787259 -32.8125 141.625 C-38.56684546 143.63592718 -42.74492179 143.66510118 -48.29296875 141.08203125 C-54.9761459 138.3630707 -61.73924104 137.80873041 -68.875 137.25 C-69.59243378 137.18995789 -70.30986755 137.12991577 -71.04904175 137.0680542 C-98.81630053 134.78971114 -127.13790786 134.42605195 -154.70507812 138.71875 C-158.16008014 139.14217152 -161.5233479 139.09702285 -165 139 C-164.53931784 135.95949772 -163.89490789 133.80242683 -162.4375 131.0625 C-159.30824923 124.08656048 -160.65485348 115.20679367 -161.5625 107.8125 C-162 104 -162 104 -161 101 C-160.88785156 100.35546875 -160.77570313 99.7109375 -160.66015625 99.046875 C-159.80474638 96.39459825 -158.45095832 95.15363332 -156.4375 93.25 C-155.79683594 92.63640625 -155.15617187 92.0228125 -154.49609375 91.390625 C-153.75552734 90.70226562 -153.75552734 90.70226562 -153 90 C-154.32 89.34 -155.64 88.68 -157 88 C-156.46982819 84.05022002 -154.71422924 82.48457778 -151.75 79.9375 C-150.98171875 79.26589844 -150.2134375 78.59429687 -149.421875 77.90234375 C-147.04451659 76.03496707 -144.62478137 74.49389152 -142 73 C-145.3 72.34 -148.6 71.68 -152 71 C-153 67 -153 67 -151.953125 64.6953125 C-146.71327126 56.78745983 -140.9744777 49.35892495 -135 42 C-134.41992188 41.27425781 -133.83984375 40.54851562 -133.2421875 39.80078125 C-129.58427814 35.35332315 -125.40878568 31.68868402 -121 28 C-120.0203125 27.16726562 -119.040625 26.33453125 -118.03125 25.4765625 C-107.63941953 16.69570668 -107.63941953 16.69570668 -103 14 C-99.625 14.75 -99.625 14.75 -97 16 C-97.04125 15.21625 -97.0825 14.4325 -97.125 13.625 C-97 11 -97 11 -95 9 C-93.68 9 -92.36 9 -91 9 C-90.01 11.475 -90.01 11.475 -89 14 C-89.66 14 -90.32 14 -91 14 C-91.33 14.99 -91.66 15.98 -92 17 C-92.495 17.495 -92.495 17.495 -93 18 C-91.96101563 18.556875 -90.92203125 19.11375 -89.8515625 19.6875 C-81.61353238 24.16765858 -74.05659792 28.76086146 -67 35 C-66.17113281 35.72058594 -65.34226562 36.44117188 -64.48828125 37.18359375 C-58.76771686 42.23836504 -53.34927728 47.55705834 -48 53 C-46.66781957 54.33448524 -45.33482894 55.66816395 -44 57 C-43.01 56.34 -42.02 55.68 -41 55 C-39.68 55 -38.36 55 -37 55 C-36.65388672 54.10861328 -36.65388672 54.10861328 -36.30078125 53.19921875 C-33.74281088 46.698132 -30.93958227 40.33696834 -28 34 C-27.34 34 -26.68 34 -26 34 C-25.76023437 33.30777344 -25.52046875 32.61554688 -25.2734375 31.90234375 C-23.77276285 28.48209446 -21.80400424 25.57222837 -19.625 22.5625 C-19.19380859 21.96284424 -18.76261719 21.36318848 -18.31835938 20.74536133 C-14.89790364 16.06656226 -11.26436115 11.5929807 -7.5 7.1875 C-6.9838916 6.58301025 -6.4677832 5.97852051 -5.93603516 5.35571289 C-2.2640677 1.13203385 -2.2640677 1.13203385 0 0 Z M-2.9375 5.6875 C-13.39483251 16.33729875 -22.54366456 29.58134672 -29 43 C-28.01 43 -27.02 43 -26 43 C-25.67 43.99 -25.34 44.98 -25 46 C-24.34 46 -23.68 46 -23 46 C-23 46.66 -23 47.32 -23 48 C-23.66 48 -24.32 48 -25 48 C-25 48.99 -25 49.98 -25 51 C-26.9375 50.625 -26.9375 50.625 -29 50 C-29.33 49.34 -29.66 48.68 -30 48 C-30.66 48 -31.32 48 -32 48 C-33.00217064 51.58327753 -33.00217064 51.58327753 -32 55 C-33.485 55.495 -33.485 55.495 -35 56 C-39.02338485 63.92613837 -39.55461762 72.04873705 -39.390625 80.765625 C-39.38496521 81.92503601 -39.37930542 83.08444702 -39.37347412 84.2789917 C-39.35130853 87.93643715 -39.30114885 91.59285697 -39.25 95.25 C-39.22990943 97.74868364 -39.21166318 100.24738284 -39.1953125 102.74609375 C-39.15150899 108.83107166 -39.08479857 114.91546253 -39 121 C-36.32288055 117.74123001 -34.13186697 114.57364984 -32.16088867 110.8371582 C-21.81016696 91.23104215 -5.21174595 65.22733131 17 58 C22.29713406 56.94057319 27.61604613 56.88544779 33 57 C29.95022454 46.82401653 23.37527055 38.34675585 17 30 C3.98519571 12.96050451 3.98519571 12.96050451 1 3 C-0.54059944 2.88749776 -0.54059944 2.88749776 -2.9375 5.6875 Z M16.6875 17.9375 C15.99011719 18.31777344 15.29273438 18.69804688 14.57421875 19.08984375 C14.05472656 19.39019531 13.53523438 19.69054687 13 20 C14.37491146 24.05274948 16.22422409 26.63383121 19.0625 29.8125 C22.89717479 34.37817903 25.9737645 39.04418567 28.875 44.25 C29.24375244 44.91104736 29.61250488 45.57209473 29.99243164 46.25317383 C32.2567602 50.40973375 34.1973856 54.62384177 36 59 C34.83984375 58.93039063 33.6796875 58.86078125 32.484375 58.7890625 C19.74363745 58.25324348 11.33674737 60.33396053 1.3125 68.6875 C-3.62849764 73.37922208 -7.83891412 78.61803996 -12 84 C-13.11375 85.42505859 -13.11375 85.42505859 -14.25 86.87890625 C-18.37371358 92.2554842 -22.25146008 97.75510444 -25.9375 103.4375 C-26.50404297 104.30628784 -26.50404297 104.30628784 -27.08203125 105.19262695 C-29.10313843 108.36213239 -30.73566787 111.45854613 -32 115 C-30.515 114.01 -30.515 114.01 -29 113 C-29 112.34 -29 111.68 -29 111 C-28.42121094 110.74476563 -27.84242188 110.48953125 -27.24609375 110.2265625 C-24.77307534 108.8760794 -23.08958354 107.32815919 -21.0625 105.375 C-16.05533867 100.85634222 -10.67763504 97.38968928 -4.83056641 94.04736328 C-3.59599421 93.34099962 -2.36655708 92.62559445 -1.14208984 91.90185547 C21.84795085 78.37795669 47.88536972 72.78389813 74 69 C72.7639208 62.33554503 69.65076852 58.91016686 64.9375 54.1875 C63.65324268 52.87014983 62.370608 51.55121523 61.08984375 50.23046875 C60.52128662 49.65707764 59.95272949 49.08368652 59.36694336 48.49291992 C58 47 58 47 57 45 C56.34 45 55.68 45 55 45 C54.72776611 44.40396973 54.45553223 43.80793945 54.17504883 43.19384766 C52.29317052 39.68033041 49.5007777 37.16258912 46.6875 34.375 C46.06883057 33.76052002 45.45016113 33.14604004 44.81274414 32.51293945 C32.41971358 19.02569105 32.41971358 19.02569105 16.6875 17.9375 Z M-108.5625 20.75 C-109.07917236 21.15613525 -109.59584473 21.56227051 -110.12817383 21.98071289 C-122.37453773 31.75965027 -132.92290038 42.80182678 -142.4375 55.25 C-142.95828125 55.92377686 -143.4790625 56.59755371 -144.015625 57.29174805 C-146.85053809 61.07147633 -148.79472977 64.35213158 -150 69 C-149.40799805 69.08451416 -148.81599609 69.16902832 -148.20605469 69.25610352 C-126.05387613 72.51490666 -107.44209671 78.96249213 -88 90 C-87.31534668 90.37914551 -86.63069336 90.75829102 -85.92529297 91.14892578 C-76.33133349 96.47158582 -68.16231222 102.69046667 -60 110 C-58.50083464 111.29263529 -57.00096294 112.58445243 -55.5 113.875 C-52.54513946 116.47056932 -49.78110342 119.21889658 -47 122 C-45.35135455 123.35555293 -43.68996005 124.69631653 -42 126 C-40.74121575 123.48243151 -40.81750072 121.65678136 -40.74365234 118.83862305 C-40.71467865 117.75957199 -40.68570496 116.68052094 -40.65585327 115.56877136 C-40.55802904 110.59184075 -40.48418227 105.61504966 -40.43017578 100.63745117 C-40.3936626 98.02352733 -40.33924295 95.40978664 -40.26611328 92.79663086 C-39.23680681 73.62729966 -39.23680681 73.62729966 -47.69238281 57.26489258 C-48.45389648 56.51747803 -49.21541016 55.77006348 -50 55 C-50.95969511 53.83980033 -51.91329276 52.67447111 -52.85546875 51.5 C-59.01071705 44.78722051 -59.01071705 44.78722051 -66 39 C-66.99 39 -67.98 39 -69 39 C-69 38.01 -69 37.02 -69 36 C-75.4643317 30.48760756 -83.14025537 26.20337593 -90.5 22 C-91.16966797 21.61440918 -91.83933594 21.22881836 -92.52929688 20.83154297 C-99.36045805 17.02212152 -102.20687102 15.73467373 -108.5625 20.75 Z M-41 63 C-40 65 -40 65 -40 65 Z M-143.4375 76.625 C-144.36433594 77.29789062 -145.29117187 77.97078125 -146.24609375 78.6640625 C-149.27579905 81.23394019 -151.54332885 83.88791931 -154 87 C-153.17612793 87.06469482 -152.35225586 87.12938965 -151.50341797 87.19604492 C-114.7665352 90.17188058 -82.23855103 97.29831744 -53 121 C-52.34 120.67 -51.68 120.34 -51 120 C-55.29898854 115.39394085 -59.86824176 111.38477433 -64.8125 107.5 C-65.36824707 107.06196045 -65.92399414 106.6239209 -66.49658203 106.17260742 C-68.3153693 104.75958157 -70.15233479 103.37505984 -72 102 C-72.72904541 101.4548877 -73.45809082 100.90977539 -74.20922852 100.34814453 C-80.90300927 95.49289689 -87.96095054 91.63972145 -95.3125 87.875 C-96.44623047 87.28074219 -97.57996094 86.68648437 -98.74804688 86.07421875 C-120.87653182 73.76261696 -120.87653182 73.76261696 -143.4375 76.625 Z M-32.00390625 117.73828125 C-33.80650217 119.78075294 -34.9451024 121.50816081 -36 124 C-32.49382049 122.65920478 -29.11763776 121.12241809 -25.73901367 119.48852539 C5.46862689 104.45107012 38.00880518 93.65594482 72 87 C67.90473413 82.10565787 63.73642915 77.29279666 59 73 C26.54475118 73 -9.90483226 95.78064133 -32.00390625 117.73828125 Z M-155.83984375 94.984375 C-157.16628325 96.90128572 -157.16628325 96.90128572 -157 99 C-155.80890625 99.00257813 -154.6178125 99.00515625 -153.390625 99.0078125 C-123.43412974 99.51330579 -92.82891627 109.04682571 -64.49194336 118.37646484 C-62.02139758 119.28192749 -62.02139758 119.28192749 -60 118 C-75.66763153 105.88303615 -91.90643433 99.03225212 -111 94 C-112.17820312 93.68160156 -113.35640625 93.36320312 -114.5703125 93.03515625 C-118.03897475 92.19515491 -121.474565 91.56054416 -125 91 C-125.886875 90.85449707 -126.77375 90.70899414 -127.6875 90.55908203 C-143.1665926 87.52188498 -143.1665926 87.52188498 -155.83984375 94.984375 Z M52.0625 92.875 C50.29918335 93.33386597 50.29918335 93.33386597 48.50024414 93.80200195 C31.04579329 98.4627227 13.68297846 104.06335528 -3 111 C0.33714142 112.11206133 2.4060225 111.86348474 5.76953125 110.92578125 C7.20304932 110.54522583 7.20304932 110.54522583 8.66552734 110.15698242 C9.70402832 109.87830322 10.7425293 109.59962402 11.8125 109.3125 C32.76094304 103.99410371 54.40811879 101.55011162 76 101 C74.69843587 98.31366673 73.32541336 95.74688422 71.6875 93.25 C71.29949219 92.63640625 70.91148437 92.0228125 70.51171875 91.390625 C69.06347583 89.76852901 69.06347583 89.76852901 66.73925781 89.83935547 C61.70550291 90.13456142 56.92558076 91.60393991 52.0625 92.875 Z M-157 101 C-157.33 101.99 -157.66 102.98 -158 104 C-151.73 103.34 -145.46 102.68 -139 102 C-139 101.67 -139 101.34 -139 101 C-144.94 101 -150.88 101 -157 101 Z M52 104 C52 104.33 52 104.66 52 105 C64.87 105.495 64.87 105.495 78 106 C77.67 105.01 77.34 104.02 77 103 C74.14576808 102.97281684 71.29179985 102.95307295 68.4375 102.9375 C67.63763672 102.92912109 66.83777344 102.92074219 66.01367188 102.91210938 C61.22836896 102.89257753 56.71854949 103.19562982 52 104 Z M-159 106 C-158.67 114.91 -158.34 123.82 -158 133 C-149.36976013 133.04173927 -149.36976013 133.04173927 -140.89453125 132.5078125 C-132.8233851 131.83392716 -124.78060581 131.84570109 -116.6875 131.875 C-115.89897644 131.87688324 -115.11045288 131.87876648 -114.29803467 131.88070679 C-57.41917598 132.03937771 -57.41917598 132.03937771 -44.0234375 140.04296875 C-40.33186821 141.78898125 -36.77834239 141.2893834 -33 140 C-32.08347656 139.35417969 -31.16695313 138.70835937 -30.22265625 138.04296875 C-24.23598081 134.53452436 -16.89388272 134.73387551 -10.125 134.25 C-9.34688965 134.18995789 -8.5687793 134.12991577 -7.76708984 134.0680542 C21.1988725 131.86071181 50.21402256 131.87045879 79 136 C79.95376567 132.79217914 80.11621181 129.91812604 80.09765625 126.578125 C80.09443359 125.55332031 80.09121094 124.52851563 80.08789062 123.47265625 C80.07951172 122.40917969 80.07113281 121.34570312 80.0625 120.25 C80.05573242 118.63158203 80.05573242 118.63158203 80.04882812 116.98046875 C80.03705727 114.32025617 80.02061399 111.66015635 80 109 C70.92724497 107.35289379 62.1534794 106.64650973 52.9375 106.6875 C51.67687744 106.69023926 50.41625488 106.69297852 49.11743164 106.69580078 C39.34688474 106.80399623 29.94015596 107.71966228 20.35375977 109.56738281 C18.63300693 109.88365436 16.90565479 110.16459164 15.17553711 110.42480469 C8.07973364 111.49841767 1.47670513 113.18975651 -5.3125 115.5 C-6.33867432 115.83515625 -7.36484863 116.1703125 -8.42211914 116.515625 C-13.85469272 118.34876055 -18.97331712 120.39904556 -24.0703125 123.03125 C-39.50711512 130.9494247 -39.50711512 130.9494247 -45.19921875 129.16796875 C-47.99847204 127.90877229 -50.54893025 126.3275682 -53.15625 124.71484375 C-59.20199835 121.04176148 -65.88495441 119.24472415 -72.625 117.25 C-73.91183596 116.86345468 -75.19862024 116.47673725 -76.48535156 116.08984375 C-79.9864719 115.04652995 -83.49237235 114.02117398 -87 113 C-88.46361743 112.56145068 -89.92717475 112.12270063 -91.390625 111.68359375 C-113.83160281 105.2682918 -135.94709262 102.6770584 -159 106 Z M11 134 C11 134.33 11 134.66 11 135 C12.28571899 135.05945801 12.28571899 135.05945801 13.59741211 135.12011719 C31.65321022 135.98738965 49.53487645 137.31172113 67.46069336 139.67871094 C68.7575708 139.84918945 70.05444824 140.01966797 71.390625 140.1953125 C72.52532227 140.35016113 73.66001953 140.50500977 74.82910156 140.66455078 C77.91355645 140.99085514 80.90108542 141.06024692 84 141 C83.505 139.02 83.505 139.02 83 137 C81.824375 137.04125 80.64875 137.0825 79.4375 137.125 C75.25270205 137.13150824 71.26404529 136.66788582 67.125 136.0625 C48.51769341 133.46998001 29.74507573 133.87398594 11 134 Z M-162 135 C-161.67 135.66 -161.34 136.32 -161 137 C-160.67 136.34 -160.34 135.68 -160 135 C-160.66 135 -161.32 135 -162 135 Z " fill="#32230D" transform="translate(414,77)"/>
<path d="M0 0 C-2.31 8.58 -4.62 17.16 -7 26 C-5.35 23.855 -3.7 21.71 -2 19.5 C12.48316042 0.96994822 12.48316042 0.96994822 21.51953125 -0.375 C28.04746789 -0.68084769 28.04746789 -0.68084769 31.2734375 1.625 C34.70730178 6.34850561 33.50202721 12.42576683 33 18 C32.22257569 22.07814582 31.22059401 26.03306946 30 30 C30.81791016 28.76636719 30.81791016 28.76636719 31.65234375 27.5078125 C47.57117699 3.80960767 47.57117699 3.80960767 59 0 C63.2677344 -0.47943241 66.78991204 -0.75630498 70.5 1.5625 C73.07213969 5.742227 73.18377671 9.7689663 72.46875 14.55859375 C71.98921875 16.47865234 71.98921875 16.47865234 71.5 18.4375 C71.3249292 19.1476123 71.1498584 19.85772461 70.96948242 20.58935547 C69.00496531 28.36018518 66.70334787 36.04425704 64.375 43.71264648 C62.84132519 48.81743579 61.55727995 53.69469486 61 59 C62.29549899 57.90033225 63.58626071 56.79508199 64.875 55.6875 C65.59429687 55.07261719 66.31359375 54.45773437 67.0546875 53.82421875 C70.38924051 50.69723832 71.24716425 48.18669686 71.88500977 43.75854492 C74.1297605 28.38952116 81.15469266 15.86674879 93.4296875 6.05859375 C99.88811546 1.5463924 105.55155115 -0.29422308 113.5 -0.375 C114.7684375 -0.40335937 116.036875 -0.43171875 117.34375 -0.4609375 C121.58849151 0.07419017 123.70073632 1.33010406 127 4 C128.83983871 6.95974054 129 8.76167723 129 12.25 C126.88530728 20.18009771 122.38598339 25.5185267 115.41015625 29.72265625 C106.1628114 34.62359914 96.52551647 37.23006593 86 37 C85.62138633 43.05781869 85.6578222 48.73101507 89 54 C92.31222701 57.18655986 95.91057938 58.2498075 100.4375 58.5 C106.59691007 58.20619509 111.13334028 55.5348091 115.8125 51.6875 C116.534375 51.130625 117.25625 50.57375 118 50 C118.99 50.33 119.98 50.66 121 51 C118.06560985 58.04253636 110.44056986 62.08316338 103.82421875 65.2734375 C97.19531161 67.91364463 89.39514703 68.06884258 82.625 65.9375 C79.21357629 63.41954441 76.29774448 60.58513323 74 57 C74 56.01 74 55.02 74 54 C73.34 54 72.68 54 72 54 C71.62488281 54.87785156 71.62488281 54.87785156 71.2421875 55.7734375 C69.83523859 58.29532706 68.31287196 59.75086062 66.125 61.625 C65.44695312 62.21539062 64.76890625 62.80578125 64.0703125 63.4140625 C59.67579343 66.78042994 56.58637128 67.41380528 51 67 C48.49970377 64.49970377 48.69427524 63.65276976 48.66796875 60.19140625 C48.79416314 53.45920995 50.44377991 47.37086032 52.3125 40.9375 C52.62123047 39.83083984 52.92996094 38.72417969 53.24804688 37.58398438 C54.88444064 31.7515325 56.60526764 25.95271729 58.45507812 20.18432617 C59.31809713 16.72490367 59.1970564 13.54701518 59 10 C58.01 9.505 58.01 9.505 57 9 C41.69752631 14.80438657 32.26954574 33.48404101 25.46875 47.55078125 C23.52101263 52.12485598 22.05469147 56.76374249 20.7265625 61.55078125 C20 64 20 64 19 65 C16.98035801 65.07244053 14.95832876 65.08377188 12.9375 65.0625 C11.83277344 65.05347656 10.72804687 65.04445313 9.58984375 65.03515625 C8.73519531 65.02355469 7.88054687 65.01195312 7 65 C7.16064438 64.42450409 7.32128876 63.84900818 7.48680115 63.256073 C9.16135531 57.25475796 10.83155976 51.25224452 12.49926758 45.24902344 C13.1218547 43.01010748 13.74554237 40.77149726 14.37036133 38.53320312 C15.26935156 35.31200025 16.16435091 32.08971107 17.05859375 28.8671875 C17.3377916 27.87008759 17.61698944 26.87298767 17.90464783 25.84567261 C20.75655246 17.85216695 20.75655246 17.85216695 20 10 C14.75376251 9.88595136 12.11066195 11.34350455 8.125 14.75 C-6.17359282 28.48446017 -13.25853239 46.45064309 -19 65 C-22.96 65 -26.92 65 -31 65 C-28.04200993 52.76453527 -24.66844571 40.68113498 -21.12817383 28.6027832 C-20.46289083 26.32879867 -19.80342044 24.05318772 -19.14453125 21.77734375 C-18.94350296 21.09808334 -18.74247467 20.41882294 -18.53535461 19.71897888 C-17.31000665 15.47424118 -16.53085308 11.3718354 -16 7 C-18.97 6.67 -21.94 6.34 -25 6 C-25 5.01 -25 4.02 -25 3 C-21.58604938 2.29852167 -18.16853031 1.61627764 -14.75 0.9375 C-13.78191406 0.73833984 -12.81382813 0.53917969 -11.81640625 0.33398438 C-10.88183594 0.15029297 -9.94726562 -0.03339844 -8.984375 -0.22265625 C-8.12553711 -0.39547119 -7.26669922 -0.56828613 -6.38183594 -0.74633789 C-4 -1 -4 -1 0 0 Z M99.98046875 8.8125 C93.57624297 15.47387442 88.91655929 23.90185074 87 33 C96.13393684 32.41071375 104.6094743 30.24433997 111.45703125 23.8359375 C115.225044 19.35247929 117.9551009 14.46945058 118.0625 8.5625 C116.81721771 5.55917213 115.88237499 4.48236428 113 3 C107.33554919 3 104.07092588 5.14137407 99.98046875 8.8125 Z " fill="#1A1A1A" transform="translate(67,269)"/>
<path d="M0 0 C9.40479321 0.9392595 18.27409574 -0.34965225 27.44140625 -2.34375 C30.72924313 -2.95006899 33.66844671 -3.12320074 37 -3 C40.72615538 3.79056185 40.73696758 10.69441344 41.125 18.3125 C41.20247828 19.65712968 41.28109769 21.00169408 41.36083984 22.34619141 C41.58796604 26.23006706 41.79403282 30.11494408 42 34 C42.11332904 35.99095721 42.22776073 37.98185225 42.34375 39.97265625 C42.5754736 43.98116863 42.7935287 47.99011008 43 52 C57.82284244 34.52682861 57.82284244 34.52682861 67 14 C66.27170256 10.70378292 66.27170256 10.70378292 62.9375 9.25 C60 7 60 7 59.4375 3.4375 C60 0 60 0 61.0625 -1.9375 C64.20334326 -3.65989792 66.49818786 -3.49148241 70 -3 C72.7663059 -0.87207239 73.78660897 0.75705226 74.37890625 4.20703125 C74.8797566 14.4663852 69.78742641 22.95973174 64.375 31.3125 C63.84720947 32.13645264 63.31941895 32.96040527 62.77563477 33.80932617 C58.20644815 40.85517824 53.25338738 47.45182169 48 54 C47.11625709 55.13628804 46.23480483 56.27436075 45.35546875 57.4140625 C38.83824562 65.84205157 32.06912347 74.02860513 25 82 C24.3296875 82.75667969 23.659375 83.51335937 22.96875 84.29296875 C18.33345105 89.23377604 13.48913552 92.39611116 6.75 93.5625 C4 93 4 93 1.5 90.875 C0 88 0 88 0.5 84.875 C2.07294685 81.8601852 2.95078031 80.48104956 6 79 C8.625 79.125 8.625 79.125 11 80 C11.99 81.485 11.99 81.485 13 83 C17.60746281 81.58167356 20.4253296 78.96669686 23.6875 75.5625 C24.41549805 74.82676758 24.41549805 74.82676758 25.15820312 74.07617188 C29.41721153 70.00995837 29.41721153 70.00995837 31.16699219 64.64111328 C31.10753418 63.24481689 31.10753418 63.24481689 31.046875 61.8203125 C31.00570557 60.7595752 30.96453613 59.69883789 30.92211914 58.60595703 C30.86531982 57.45724121 30.80852051 56.30852539 30.75 55.125 C30.6977124 53.94147949 30.6454248 52.75795898 30.59155273 51.53857422 C30.41231948 47.69123532 30.21043347 43.84575486 30 40 C29.96392639 39.33645508 29.92785278 38.67291016 29.89068604 37.98925781 C29.63694567 33.36635131 29.35629646 28.74556391 29.0625 24.125 C28.98805664 22.89023926 28.91361328 21.65547852 28.83691406 20.38330078 C28.75795898 19.22813965 28.67900391 18.07297852 28.59765625 16.8828125 C28.53070557 15.86590332 28.46375488 14.84899414 28.39477539 13.80126953 C27.99005512 10.92943256 27.18948508 8.63478638 26 6 C23.69 5.67 21.38 5.34 19 5 C18.34 6.32 17.68 7.64 17 9 C13.37 9 9.74 9 6 9 C6.495 9.99 6.495 9.99 7 11 C8.03088588 18.65800941 6.50495714 24.72674193 2 31 C-3.47690867 36.73566027 -9.37392259 39.29028264 -17 41 C-23.91839667 42.50817777 -23.91839667 42.50817777 -30 46 C-30.65119581 48.05160658 -30.65119581 48.05160658 -31 50 C-29.97261719 50.24234375 -28.94523437 50.4846875 -27.88671875 50.734375 C-4.46922689 56.35434643 -4.46922689 56.35434643 1 62 C3.70674086 66.48875887 3.64693189 70.89732475 3 76 C-0.75761809 83.65975995 -6.7157923 87.17829808 -14.33984375 90.203125 C-24.81732844 93.34175477 -38.01893901 92.87566975 -48.0078125 88.234375 C-51.97189763 85.77819676 -54.21361111 82.91682292 -56 78.5625 C-56 73.28219879 -54.23446251 70.26307588 -50.640625 66.5859375 C-43.90184859 60.4509243 -43.90184859 60.4509243 -41 59 C-41.495 57.515 -41.495 57.515 -42 56 C-42.47827662 51.69551044 -42.60672671 49.76733084 -39.875 46.3125 C-36.99555459 43.99642434 -34.1266975 41.96327517 -31 40 C-31.54269531 39.61328125 -32.08539063 39.2265625 -32.64453125 38.828125 C-33.71767578 38.04695313 -33.71767578 38.04695313 -34.8125 37.25 C-35.87404297 36.48429687 -35.87404297 36.48429687 -36.95703125 35.703125 C-40.62899208 32.64198748 -42.71373904 29.64204783 -43.23828125 24.80078125 C-43.48233115 16.61868707 -41.38622529 11.38992436 -35.9375 5.3125 C-26.52789865 -3.5115253 -11.29880237 -7.53253491 0 0 Z M-23 5 C-27.59968307 12.67686032 -30.99751506 19.89540798 -30 29 C-28.66343301 32.16555339 -27.34375595 33.70398793 -24.75 35.9375 C-21.95423181 37.24266474 -21.95423181 37.24266474 -18.5625 36.75 C-12.34674039 33.6966444 -9.55686208 27.93193202 -7.125 21.625 C-5.62473074 16.47347302 -5.10804776 11.3096402 -6 6 C-7.8990956 2.68169647 -7.8990956 2.68169647 -11 1 C-15.88373762 0.0648162 -19.67500965 1.34165586 -23 5 Z M-40.125 62.5 C-41.70695454 64.20897582 -41.70695454 64.20897582 -43 66 C-43.9590625 67.2065625 -43.9590625 67.2065625 -44.9375 68.4375 C-46.38762212 71.93485334 -46.52721441 74.24359735 -46 78 C-43.41548323 82.07257188 -40.8702007 84.82217529 -36.2109375 86.53125 C-28.3700005 88.19363947 -19.09842526 88.03998552 -12 84 C-9.4465967 81.94063604 -7.5400898 79.9069968 -6 77 C-5.77419311 73.16128289 -6.34706247 71.73999587 -8.875 68.875 C-13.37989347 66.17206392 -17.99908535 64.56435647 -23 63 C-24.10859375 62.62746094 -25.2171875 62.25492187 -26.359375 61.87109375 C-33.61093618 59.54920291 -33.61093618 59.54920291 -40.125 62.5 Z " fill="#1A1A1A" transform="translate(241,272)"/>
<path d="M0 0 C6.6 0 13.2 0 20 0 C20.33 16.5 20.66 33 21 50 C29.71593434 38.65277681 29.71593434 38.65277681 38 27 C40.33837891 26.65942383 40.33837891 26.65942383 43.2265625 26.70703125 C44.7734375 26.7215332 44.7734375 26.7215332 46.3515625 26.73632812 C47.43179688 26.76146484 48.51203125 26.78660156 49.625 26.8125 C50.71296875 26.82603516 51.8009375 26.83957031 52.921875 26.85351562 C55.61507409 26.88895246 58.30729374 26.93835669 61 27 C59.68041161 29.77585804 58.20980937 32.25689851 56.42578125 34.7578125 C55.92594727 35.46172119 55.42611328 36.16562988 54.91113281 36.89086914 C54.38358398 37.62813232 53.85603516 38.36539551 53.3125 39.125 C52.23032443 40.64703282 51.14829269 42.1691679 50.06640625 43.69140625 C49.54191895 44.42762207 49.01743164 45.16383789 48.47705078 45.92236328 C46.55460128 48.62650299 44.65030806 51.34275726 42.75 54.0625 C41.93789063 55.22458984 41.93789063 55.22458984 41.109375 56.41015625 C40.74328125 56.93480469 40.3771875 57.45945312 40 58 C45.10608005 67.0988043 50.69262035 75.86096126 56.37548828 84.60791016 C56.97216309 85.53394043 57.56883789 86.4599707 58.18359375 87.4140625 C58.72556396 88.2488916 59.26753418 89.0837207 59.82592773 89.94384766 C61 92 61 92 61 94 C53.41 94 45.82 94 38 94 C36.94039062 92.15792969 35.88078125 90.31585938 34.7890625 88.41796875 C33.76001031 86.63063693 32.73060807 84.84350716 31.70117188 83.05639648 C30.98693827 81.81604751 30.2730677 80.57548941 29.55957031 79.3347168 C28.53285999 77.5494134 27.50483853 75.7648707 26.4765625 73.98046875 C25.85861816 72.90692139 25.24067383 71.83337402 24.60400391 70.72729492 C23.46050684 68.78300181 22.25119773 66.8767966 21 65 C20.67 74.57 20.34 84.14 20 94 C13.4 94 6.8 94 0 94 C0 62.98 0 31.96 0 0 Z " fill="#1A1A1A" transform="translate(594,243)"/>
<path d="M0 0 C1.12776855 0.00241699 1.12776855 0.00241699 2.27832031 0.00488281 C8.14087424 0.13425981 12.71428408 1.12718552 17.6875 4.375 C18.615625 4.9525 19.54375 5.53 20.5 6.125 C25.40164804 11.16669512 26.6875 15.34621321 26.6875 22.375 C20.0875 22.375 13.4875 22.375 6.6875 22.375 C5.6975 20.395 4.7075 18.415 3.6875 16.375 C1.0475 16.375 -1.5925 16.375 -4.3125 16.375 C-5.3025 18.85 -5.3025 18.85 -6.3125 21.375 C-4.143369 23.8398449 -2.58926875 24.82195523 0.6015625 25.55078125 C1.73730713 25.8278894 1.73730713 25.8278894 2.89599609 26.1105957 C3.69344238 26.30097412 4.49088867 26.49135254 5.3125 26.6875 C13.77978325 28.89551599 21.55293955 31.15763125 26.25 39.125 C28.48211992 44.51500386 28.72326695 50.04076145 26.9921875 55.61328125 C24.16091155 61.93011961 19.37018236 66.30636183 12.8515625 68.8046875 C2.86822942 71.4356742 -7.48982696 70.97058219 -16.69921875 66.1171875 C-21.44865349 62.90407638 -24.8137382 58.98549648 -26.3125 53.375 C-26.37075447 51.04239398 -26.3798606 48.70736082 -26.3125 46.375 C-23.22988544 46.2003603 -20.14854167 46.09405933 -17.0625 46 C-16.18980469 45.94972656 -15.31710937 45.89945312 -14.41796875 45.84765625 C-11.91583745 45.79035553 -9.75164557 45.80470332 -7.3125 46.375 C-4.88671875 49.33203125 -4.88671875 49.33203125 -3.3125 52.375 C-0.41543293 53.62177006 -0.41543293 53.62177006 2.6875 53.375 C5.52408587 52.05826167 5.52408587 52.05826167 7.6875 50.375 C7.3575 48.725 7.0275 47.075 6.6875 45.375 C6.08164062 45.19324219 5.47578125 45.01148438 4.8515625 44.82421875 C3.08514713 44.29429414 1.319582 43.76153052 -0.4453125 43.2265625 C-2.28808742 42.67925333 -4.13684259 42.1514902 -5.9921875 41.6484375 C-14.05746073 39.41761724 -19.3625592 36.16349023 -24.3125 29.375 C-26.10049597 23.85357849 -25.8400075 18.28721469 -24.3125 12.75 C-21.21079259 7.51586875 -17.19997019 3.61307483 -11.5703125 1.19921875 C-7.64243381 0.20547486 -4.03693171 -0.00897495 0 0 Z " fill="#1A1A1A" transform="translate(675.3125,268.625)"/>
<path d="M0 0 C-1.40955561 7.89359534 -3.46693225 15.52881597 -5.6953125 23.2265625 C-6.04761932 24.45539154 -6.39992615 25.68422058 -6.76290894 26.95028687 C-7.69051918 30.18306916 -8.62154977 33.41482426 -9.55432129 36.64611816 C-10.50919925 39.95724686 -11.4594709 43.26969685 -12.41015625 46.58203125 C-14.26924145 53.05589991 -16.13285483 59.52845162 -18 66 C-17.505 66.495 -17.505 66.495 -17 67 C-10.4265471 61.84732222 -3.85340776 56.69396527 2.6875 51.5 C3.45449219 50.8915625 4.22148437 50.283125 5.01171875 49.65625 C8.87849123 46.46161305 8.87849123 46.46161305 11 42 C9.35 42 7.7 42 6 42 C6 40.68 6 39.36 6 38 C15.57 38 25.14 38 35 38 C35 39.32 35 40.64 35 42 C34.40574219 42.07476562 33.81148438 42.14953125 33.19921875 42.2265625 C21.87172658 44.02345861 13.39821642 50.18664308 4.53125 57.046875 C2.73704743 58.43129056 0.885612 59.74292534 -1 61 C1.02656818 68.11659819 3.40943485 75.0316551 6.0625 81.9375 C6.41376953 82.86884766 6.76503906 83.80019531 7.12695312 84.75976562 C7.46791016 85.65244141 7.80886719 86.54511719 8.16015625 87.46484375 C8.46574463 88.265271 8.77133301 89.06569824 9.08618164 89.89038086 C10.02630957 92.23259703 10.02630957 92.23259703 12 95 C18.39346024 93.72130795 21.76918673 89.61738504 26 85 C27.485 85.495 27.485 85.495 29 86 C25.3769258 93.87624825 18.77833886 100.22784982 11 104 C7.1875 104.625 7.1875 104.625 4 104 C0.73174818 101.2733442 -0.82714954 98.68000329 -2.375 94.75 C-2.78878906 93.70457031 -3.20257813 92.65914063 -3.62890625 91.58203125 C-4.30759766 89.80892578 -4.30759766 89.80892578 -5 88 C-5.2666748 87.31599121 -5.53334961 86.63198242 -5.80810547 85.92724609 C-6.65036606 83.76679165 -7.48335141 81.60301789 -8.3125 79.4375 C-8.5791748 78.74688477 -8.84584961 78.05626953 -9.12060547 77.34472656 C-10.22232573 74.41694661 -11 72.15587877 -11 69 C-11.62648438 69.5053125 -12.25296875 70.010625 -12.8984375 70.53125 C-13.71570313 71.1809375 -14.53296875 71.830625 -15.375 72.5 C-16.18710937 73.1496875 -16.99921875 73.799375 -17.8359375 74.46875 C-20 76 -20 76 -22 76 C-22.1134375 76.96164062 -22.226875 77.92328125 -22.34375 78.9140625 C-23.00155787 83.5117689 -24.23443538 87.91298074 -25.5 92.375 C-25.83837891 93.60283203 -25.83837891 93.60283203 -26.18359375 94.85546875 C-27.86896961 100.86896961 -27.86896961 100.86896961 -29 102 C-31.01964199 102.07244053 -33.04167124 102.08377188 -35.0625 102.0625 C-36.16722656 102.05347656 -37.27195312 102.04445313 -38.41015625 102.03515625 C-39.26480469 102.02355469 -40.11945313 102.01195312 -41 102 C-37.28256197 87.91662235 -33.4293908 73.88135036 -29.37890625 59.890625 C-28.98151317 58.51543428 -28.58416427 57.14023078 -28.18685913 55.76501465 C-26.56517331 50.15543564 -24.94137673 44.54649623 -23.3059082 38.94091797 C-22.28598558 35.44401296 -21.27384377 31.94493591 -20.26670647 28.44432831 C-19.70513235 26.50063317 -19.13508762 24.5593917 -18.56483459 22.6182251 C-18.2270549 21.44129089 -17.88927521 20.26435669 -17.54125977 19.05175781 C-17.24260513 18.02431458 -16.9439505 16.99687134 -16.63624573 15.93829346 C-15.97247911 12.87290374 -15.88512211 10.1266149 -16 7 C-18.97 6.67 -21.94 6.34 -25 6 C-25 5.01 -25 4.02 -25 3 C-16.50782838 1.05623627 -8.73136581 -0.12859301 0 0 Z " fill="#1A1A1A" transform="translate(350,232)"/>
<path d="M0 0 C0.99 0 1.98 0 3 0 C2.34 1.98 1.68 3.96 1 6 C1.99 6 2.98 6 4 6 C3.34 7.32 2.68 8.64 2 10 C4.7283768 10 7.31654063 9.46668859 10 9 C9.67 9.99 9.34 10.98 9 12 C6.4375 13.1875 6.4375 13.1875 4 14 C6.31 14.33 8.62 14.66 11 15 C11 15.99 11 16.98 11 18 C9.35 18.33 7.7 18.66 6 19 C7.65 19.66 9.3 20.32 11 21 C11 21.99 11 22.98 11 24 C8.03 23.34 5.06 22.68 2 22 C2.66 22.598125 3.32 23.19625 4 23.8125 C6 26 6 26 6 29 C5.360625 28.67 4.72125 28.34 4.0625 28 C2.23205433 26.92728775 2.23205433 26.92728775 1 27 C1 28.32 1 29.64 1 31 C0.34 31 -0.32 31 -1 31 C-1.66 29.68 -2.32 28.36 -3 27 C-3.99 29.475 -3.99 29.475 -5 32 C-5.66 31.67 -6.32 31.34 -7 31 C-7.625 27.9375 -7.625 27.9375 -8 25 C-8.99 27.31 -9.98 29.62 -11 32 C-11.99 32 -12.98 32 -14 32 C-13.34 29.36 -12.68 26.72 -12 24 C-13.32 24.99 -14.64 25.98 -16 27 C-16 25.68 -16 24.36 -16 23 C-16.66 23 -17.32 23 -18 23 C-18.66 23 -19.32 23 -20 23 C-20 22.01 -20 21.02 -20 20 C-18.68 19.34 -17.36 18.68 -16 18 C-17.98 17.34 -19.96 16.68 -22 16 C-22 15.34 -22 14.68 -22 14 C-18.535 13.505 -18.535 13.505 -15 13 C-15.66 12.54625 -16.32 12.0925 -17 11.625 C-17.66 11.08875 -18.32 10.5525 -19 10 C-19 9.34 -19 8.68 -19 8 C-17.68 8.33 -16.36 8.66 -15 9 C-15.33 7.35 -15.66 5.7 -16 4 C-14.68 4.66 -13.36 5.32 -12 6 C-11.67 4.35 -11.34 2.7 -11 1 C-10.01 1.99 -9.02 2.98 -8 4 C-7.67 3.01 -7.34 2.02 -7 1 C-6.34 1 -5.68 1 -5 1 C-4.34 2.65 -3.68 4.3 -3 6 C-2.01 4.02 -1.02 2.04 0 0 Z M-11 7 C-10 9 -10 9 -10 9 Z " fill="#9F7942" transform="translate(377,80)"/>
<path d="M0 0 C0.66 0 1.32 0 2 0 C2.33 1.65 2.66 3.3 3 5 C3.66 5 4.32 5 5 5 C5 5.99 5 6.98 5 8 C5.433125 7.34 5.86625 6.68 6.3125 6 C6.869375 5.34 7.42625 4.68 8 4 C8.99 4 9.98 4 11 4 C9.66666667 6.66666667 8.33333333 9.33333333 7 12 C10.465 11.505 10.465 11.505 14 11 C14 11.66 14 12.32 14 13 C10.535 14.485 10.535 14.485 7 16 C9.97 16.66 12.94 17.32 16 18 C16 18.66 16 19.32 16 20 C14.68 20.33 13.36 20.66 12 21 C12 21.66 12 22.32 12 23 C10.35 23 8.7 23 7 23 C7.825 23.61875 8.65 24.2375 9.5 24.875 C10.325 25.57625 11.15 26.2775 12 27 C12 27.66 12 28.32 12 29 C9.07120629 28.37240135 6.63904371 27.41377341 4 26 C4.33 27.98 4.66 29.96 5 32 C4.01 31.67 3.02 31.34 2 31 C0.8125 27.9375 0.8125 27.9375 0 25 C-0.66 27.97 -1.32 30.94 -2 34 C-2.66 34 -3.32 34 -4 34 C-4.33 32.35 -4.66 30.7 -5 29 C-5.33 29.66 -5.66 30.32 -6 31 C-6.99 31 -7.98 31 -9 31 C-9 30.01 -9 29.02 -9 28 C-10.98 28.99 -10.98 28.99 -13 30 C-12.38722388 27.03824877 -11.74627478 25.61941217 -10 23 C-11.98 23 -13.96 23 -16 23 C-16 22.34 -16 21.68 -16 21 C-13.35261084 19.5393715 -12.10551666 19 -9 19 C-9 18.34 -9 17.68 -9 17 C-11.97 17 -14.94 17 -18 17 C-18 16.01 -18 15.02 -18 14 C-16.68 13.67 -15.36 13.34 -14 13 C-14.66 12.01 -15.32 11.02 -16 10 C-15.01 9.67 -14.02 9.34 -13 9 C-13.33 7.68 -13.66 6.36 -14 5 C-10.63408134 6.44253657 -8.48952921 8.33264727 -6 11 C-6.33 8.03 -6.66 5.06 -7 2 C-6.34 2 -5.68 2 -5 2 C-4.01 4.31 -3.02 6.62 -2 9 C-1.34 6.03 -0.68 3.06 0 0 Z M-8 25 C-7 27 -7 27 -7 27 Z " fill="#9E7841" transform="translate(298,51)"/>
<path d="M0 0 C4.31270236 0.14019551 8.62510461 0.28818192 12.9375 0.4375 C14.14986328 0.47681641 15.36222656 0.51613281 16.61132812 0.55664062 C23.12486148 0.7861147 29.53474481 1.17004815 36 2 C36 2.66 36 3.32 36 4 C35.34 4 34.68 4 34 4 C34 4.66 34 5.32 34 6 C33.05382812 5.98952637 32.10765625 5.97905273 31.1328125 5.96826172 C27.53942829 5.93138673 23.94605978 5.90886077 20.35253906 5.89013672 C18.81279669 5.8802297 17.27307233 5.86670031 15.73339844 5.84912109 C4.98455327 5.72968948 -5.36849222 6.39404847 -16 8 C-15.02772461 7.92313965 -14.05544922 7.8462793 -13.05371094 7.76708984 C-4.30368913 7.09768258 4.41214203 6.89028032 13.1875 6.875 C14.81739868 6.86823242 14.81739868 6.86823242 16.48022461 6.86132812 C18.02722046 6.86422852 18.02722046 6.86422852 19.60546875 6.8671875 C20.98448364 6.86887939 20.98448364 6.86887939 22.39135742 6.87060547 C25.01807505 7.00089656 27.43872325 7.41772081 30 8 C30 8.33 30 8.66 30 9 C29.07179443 9.01458252 28.14358887 9.02916504 27.18725586 9.04418945 C-2.3888472 9.55860388 -31.32995116 11.67114275 -60.53759766 16.68041992 C-63.05344993 17.00693694 -65.46603436 17.05585044 -68 17 C-64.99382731 13.99382731 -62.17618402 14.40414684 -58 14 C-58 13.34 -58 12.68 -58 12 C-33.19982126 6.99301448 -9.31818512 3.58364656 16 3 C10.72 2.67 5.44 2.34 0 2 C0 1.34 0 0.68 0 0 Z M26 3 C26 3.33 26 3.66 26 4 C28.64 4 31.28 4 34 4 C34 3.67 34 3.34 34 3 C31.36 3 28.72 3 26 3 Z M-41 10 C-41 10.33 -41 10.66 -41 11 C-39.02 11 -37.04 11 -35 11 C-35 10.67 -35 10.34 -35 10 C-36.98 10 -38.96 10 -41 10 Z " fill="#32230D" transform="translate(457,186)"/>
<path d="M0 0 C0.66 0.33 1.32 0.66 2 1 C2 2.32 2 3.64 2 5 C3.32 4.34 4.64 3.68 6 3 C5.835 3.639375 5.67 4.27875 5.5 4.9375 C4.96073333 6.80826821 4.96073333 6.80826821 5 8 C5.99 8 6.98 8 8 8 C7.67 8.99 7.34 9.98 7 11 C6.01 11.33 5.02 11.66 4 12 C5.98 12.66 7.96 13.32 10 14 C10 14.66 10 15.32 10 16 C8.02 16.33 6.04 16.66 4 17 C4.66 17.33 5.32 17.66 6 18 C6 18.99 6 19.98 6 21 C4.68 20.67 3.36 20.34 2 20 C1.67 21.32 1.34 22.64 1 24 C-0.32 23.34 -1.64 22.68 -3 22 C-3.33 22.99 -3.66 23.98 -4 25 C-4.99 25 -5.98 25 -7 25 C-7 23.35 -7 21.7 -7 20 C-8.32 20.33 -9.64 20.66 -11 21 C-10.67 19.68 -10.34 18.36 -10 17 C-11.32 17 -12.64 17 -14 17 C-14 16.34 -14 15.68 -14 15 C-12.68 14.34 -11.36 13.68 -10 13 C-10.825 12.54625 -11.65 12.0925 -12.5 11.625 C-13.7375 10.820625 -13.7375 10.820625 -15 10 C-15 9.34 -15 8.68 -15 8 C-13.35 8 -11.7 8 -10 8 C-10.66 6.68 -11.32 5.36 -12 4 C-10.68 4.33 -9.36 4.66 -8 5 C-8 3.68 -8 2.36 -8 1 C-7.01 1.33 -6.02 1.66 -5 2 C-4.67 3.65 -4.34 5.3 -4 7 C-3.34 7 -2.68 7 -2 7 C-1.855625 6.030625 -1.71125 5.06125 -1.5625 4.0625 C-1 1 -1 1 0 0 Z " fill="#9E7841" transform="translate(342,60)"/>
<path d="M0 0 C0.99 0.33 1.98 0.66 3 1 C3.33 1.99 3.66 2.98 4 4 C4.66 2.68 5.32 1.36 6 0 C6.66 0 7.32 0 8 0 C8.33 0.99 8.66 1.98 9 3 C9.66 2.34 10.32 1.68 11 1 C11.99 1 12.98 1 14 1 C13.34 2.65 12.68 4.3 12 6 C13.32 6 14.64 6 16 6 C15.34 7.32 14.68 8.64 14 10 C14.99 10.33 15.98 10.66 17 11 C17 11.66 17 12.32 17 13 C15.68 13.33 14.36 13.66 13 14 C13.99 15.32 14.98 16.64 16 18 C12 18 12 18 10 17 C10.33 18.98 10.66 20.96 11 23 C10.01 22.67 9.02 22.34 8 22 C7.3125 19.9375 7.3125 19.9375 7 18 C6.34 18 5.68 18 5 18 C5 19.65 5 21.3 5 23 C4.34 23 3.68 23 3 23 C2.67 21.35 2.34 19.7 2 18 C0.35 19.32 -1.3 20.64 -3 22 C-2.835 21.195625 -2.67 20.39125 -2.5 19.5625 C-1.96808161 17.2715557 -1.96808161 17.2715557 -2 16 C-3.32 15.67 -4.64 15.34 -6 15 C-4.68 14.01 -3.36 13.02 -2 12 C-3.32 11.67 -4.64 11.34 -6 11 C-6 10.34 -6 9.68 -6 9 C-4.68 8.67 -3.36 8.34 -2 8 C-2.99 7.34 -3.98 6.68 -5 6 C-5 5.34 -5 4.68 -5 4 C-3.35 4.33 -1.7 4.66 0 5 C0 3.35 0 1.7 0 0 Z " fill="#9E7841" transform="translate(320,26)"/>
<path d="M0 0 C19.22909444 -0.32776866 39.61762134 0.87254045 58 7 C58.495 7.99 58.495 7.99 59 9 C61.49837928 9.7213267 61.49837928 9.7213267 64.53125 10.21875 C66.21154297 10.53392578 66.21154297 10.53392578 67.92578125 10.85546875 C69.10527344 11.06816406 70.28476562 11.28085938 71.5 11.5 C73.82436177 11.9191472 76.1473822 12.34582658 78.46875 12.78125 C79.50451172 12.96751953 80.54027344 13.15378906 81.60742188 13.34570312 C82.79174805 13.66958008 82.79174805 13.66958008 84 14 C84.495 14.99 84.495 14.99 85 16 C79.57158997 15.37685707 74.21521795 14.54002662 68.8347168 13.59106445 C44.91137778 9.40704079 21.22720775 8.50528979 -3 8 C-3 7.34 -3 6.68 -3 6 C2.90424362 6.11932803 8.80835516 6.24363282 14.71240234 6.37231445 C16.715955 6.41530984 18.71953603 6.45700536 20.72314453 6.49731445 C42.07806848 6.92867327 42.07806848 6.92867327 52 8 C38.10104023 5.05130205 24.47387616 3.37840736 10.28637695 2.68408203 C8.49526489 2.58909424 8.49526489 2.58909424 6.66796875 2.4921875 C5.59828857 2.44433105 4.5286084 2.39647461 3.42651367 2.34716797 C2.62576416 2.23260254 1.82501465 2.11803711 1 2 C0.67 1.34 0.34 0.68 0 0 Z " fill="#32230D" transform="translate(268,191)"/>
<path d="M0 0 C79.46491446 1.83098881 79.46491446 1.83098881 99.72583008 20.59863281 C100.14630615 21.06108398 100.56678223 21.52353516 101 22 C96.97519358 21.373919 93.33391208 20.09504411 89.51855469 18.7277832 C63.61316521 9.54131847 35.39167316 4.74907935 8.01367188 2.68261719 C2.20641212 2.20641212 2.20641212 2.20641212 0 0 Z " fill="#32230D" transform="translate(269,187)"/>
<path d="M0 0 C1.20215149 -0.00149551 1.20215149 -0.00149551 2.42858887 -0.00302124 C28.58937294 0.00066413 28.58937294 0.00066413 40.5625 2.1875 C40.5625 2.8475 40.5625 3.5075 40.5625 4.1875 C39.83261368 4.11807693 39.10272736 4.04865387 38.35072327 3.97712708 C31.15868897 3.33005567 24.02790869 3.00326131 16.80859375 2.94921875 C15.72023727 2.93969681 14.6318808 2.93017487 13.51054382 2.92036438 C10.00700223 2.89599996 6.5036148 2.88338458 3 2.875 C1.21175812 2.86907837 1.21175812 2.86907837 -0.61260986 2.86303711 C-20.81139208 2.8318426 -40.48097264 4.07717698 -60.4375 7.1875 C-60.4375 6.5275 -60.4375 5.8675 -60.4375 5.1875 C-40.30386209 1.41715582 -20.46211965 0.00671427 0 0 Z " fill="#32230D" transform="translate(446.4375,200.8125)"/>
<path d="M0 0 C0.99 0.33 1.98 0.66 3 1 C2.34 2.98 1.68 4.96 1 7 C1.33 7.33 1.66 7.66 2 8 C2.36162029 9.32594105 2.69728039 10.65938457 3 12 C3.66 12 4.32 12 5 12 C5 12.66 5 13.32 5 14 C4.34 14 3.68 14 3 14 C3 14.99 3 15.98 3 17 C1.35 16.67 -0.3 16.34 -2 16 C-2 15.34 -2 14.68 -2 14 C-2.66 14 -3.32 14 -4 14 C-4 16.31 -4 18.62 -4 21 C-4.66 21.33 -5.32 21.66 -6 22 C-6.72159424 23.64363134 -7.39351421 25.31050386 -8 27 C-8.99 27 -9.98 27 -11 27 C-11 27.66 -11 28.32 -11 29 C-12.65 28.67 -14.3 28.34 -16 28 C-16.33 26.68 -16.66 25.36 -17 24 C-13.93882432 21.37613513 -13.26826873 21 -9 21 C-8.65388672 20.10861328 -8.65388672 20.10861328 -8.30078125 19.19921875 C-5.74281088 12.698132 -2.93958227 6.33696834 0 0 Z " fill="#553E1C" transform="translate(386,111)"/>
<path d="M0 0 C0.76223877 -0.00006042 1.52447754 -0.00012085 2.30981445 -0.00018311 C13.72874107 0.01262105 25.10343267 0.35021454 36.5 1.0625 C38.47419922 1.18008667 38.47419922 1.18008667 40.48828125 1.30004883 C41.69871094 1.38407959 42.90914063 1.46811035 44.15625 1.5546875 C45.21650391 1.62800293 46.27675781 1.70131836 47.36914062 1.77685547 C50 2.1875 50 2.1875 53 4.1875 C51.81833252 4.12183838 50.63666504 4.05617676 49.41918945 3.98852539 C34.01348407 3.17312753 18.61130241 2.8723543 3.1875 2.625 C0.63345856 2.58167266 -1.92057796 2.53805462 -4.47460938 2.49414062 C-10.64968712 2.38858615 -16.82481516 2.2865806 -23 2.1875 C-23 1.8575 -23 1.5275 -23 1.1875 C-15.3303453 -0.04468411 -7.74141294 -0.00932351 0 0 Z " fill="#32230C" transform="translate(285,202.8125)"/>
<path d="M0 0 C33.37313856 -0.31343072 33.37313856 -0.31343072 40 3 C20.695 2.505 20.695 2.505 1 2 C0.67 1.34 0.34 0.68 0 0 Z " fill="#32230D" transform="translate(446,197)"/>
<path d="M0 0 C1.65 0.33 3.3 0.66 5 1 C5.66 3.31 6.32 5.62 7 8 C6.34 8 5.68 8 5 8 C4.67 8.66 4.34 9.32 4 10 C2.35 10 0.7 10 -1 10 C-1.33 9.34 -1.66 8.68 -2 8 C-1.67 7.34 -1.34 6.68 -1 6 C-1.66 6 -2.32 6 -3 6 C-3 5.01 -3 4.02 -3 3 C-2.34 3 -1.68 3 -1 3 C-0.67 2.01 -0.34 1.02 0 0 Z " fill="#9F7941" transform="translate(355,29)"/>
<path d="M0 0 C4.4582769 -0.05867342 8.91645273 -0.09382135 13.375 -0.125 C15.25251953 -0.15013672 15.25251953 -0.15013672 17.16796875 -0.17578125 C24.37026 -0.21348958 31.01413893 0.1918708 38 2 C38 2.66 38 3.32 38 4 C37.01644531 3.86722656 36.03289062 3.73445312 35.01953125 3.59765625 C23.36214814 2.09228443 11.7420668 1.4361667 0 1 C0 0.67 0 0.34 0 0 Z " fill="#32220D" transform="translate(264,185)"/>
<path d="M0 0 C0 1.32 0 2.64 0 4 C0.66 4 1.32 4 2 4 C2 4.66 2 5.32 2 6 C1.01 6 0.02 6 -1 6 C-1 6.99 -1 7.98 -1 9 C-3.375 8.8125 -3.375 8.8125 -6 8 C-7.3125 5.4375 -7.3125 5.4375 -8 3 C-5.53387212 -0.1151089 -3.89156016 -0.31553191 0 0 Z " fill="#9E7942" transform="translate(373,65)"/>
<path d="M0 0 C0 0.99 0 1.98 0 3 C0.66 3 1.32 3 2 3 C2 3.99 2 4.98 2 6 C1.34 6 0.68 6 0 6 C-0.33 6.66 -0.66 7.32 -1 8 C-2.32 8 -3.64 8 -5 8 C-5 6.68 -5 5.36 -5 4 C-5.66 4 -6.32 4 -7 4 C-7 3.01 -7 2.02 -7 1 C-4.53721199 -0.231394 -2.7204945 -0.07159196 0 0 Z " fill="#9E7842" transform="translate(343,96)"/>
<path d="M0 0 C2.125 4.625 2.125 4.625 1 8 C-0.65 8.33 -2.3 8.66 -4 9 C-4 8.01 -4 7.02 -4 6 C-4.99 5.67 -5.98 5.34 -7 5 C-6.67 3.68 -6.34 2.36 -6 1 C-3.92446352 0.4465236 -2.15634036 0 0 0 Z " fill="#9E7942" transform="translate(385,55)"/>
<path d="M0 0 C0.66 0.33 1.32 0.66 2 1 C2 1.99 2 2.98 2 4 C2.66 4 3.32 4 4 4 C4 4.66 4 5.32 4 6 C3.34 6 2.68 6 2 6 C2 6.99 2 7.98 2 9 C-0.375 8.75 -0.375 8.75 -3 8 C-4.3125 5.9375 -4.3125 5.9375 -5 4 C-3 1 -3 1 0 0 Z " fill="#9C7740" transform="translate(387,119)"/>
<path d="M0 0 C2.375 0.25 2.375 0.25 5 1 C6.3125 3.0625 6.3125 3.0625 7 5 C6.34 5 5.68 5 5 5 C5 5.99 5 6.98 5 8 C3.35 8 1.7 8 0 8 C0 7.01 0 6.02 0 5 C-0.66 5 -1.32 5 -2 5 C-1.34 3.35 -0.68 1.7 0 0 Z " fill="#9E7942" transform="translate(347,44)"/>
<path d="M0 0 C1.32 0 2.64 0 4 0 C4.66 1.65 5.32 3.3 6 5 C5.34 5 4.68 5 4 5 C3.67 5.99 3.34 6.98 3 8 C1.68 8 0.36 8 -1 8 C-1.625 5.125 -1.625 5.125 -2 2 C-1.34 1.34 -0.68 0.68 0 0 Z " fill="#9E7942" transform="translate(319,86)"/>
<path d="M0 0 C0.598125 0.226875 1.19625 0.45375 1.8125 0.6875 C2.1425 2.3375 2.4725 3.9875 2.8125 5.6875 C2.1525 5.6875 1.4925 5.6875 0.8125 5.6875 C0.8125 6.3475 0.8125 7.0075 0.8125 7.6875 C-0.8375 7.3575 -2.4875 7.0275 -4.1875 6.6875 C-4.875 4.875 -4.875 4.875 -5.1875 2.6875 C-3.58493056 0.24147296 -2.95482043 -0.4221172 0 0 Z " fill="#9A753F" transform="translate(374.1875,132.3125)"/>
<path d="M0 0 C1.125 4.75 1.125 4.75 0 7 C-1.9375 7.75 -1.9375 7.75 -4 8 C-6 6 -6 6 -6.125 3.375 C-6.08375 2.59125 -6.0425 1.8075 -6 1 C-3 0 -3 0 0 0 Z " fill="#9F7941" transform="translate(398,72)"/>
<path d="M0 0 C1.5625 1.25 1.5625 1.25 3 3 C2.6875 5.1875 2.6875 5.1875 2 7 C0.35 7 -1.3 7 -3 7 C-3.33 5.35 -3.66 3.7 -4 2 C-2.68 1.34 -1.36 0.68 0 0 Z " fill="#9E7942" transform="translate(373,117)"/>
<path d="M0 0 C0.99 0.33 1.98 0.66 3 1 C1.74194623 5.50802601 0.09592835 8.4912812 -3 12 C-3.66 11.67 -4.32 11.34 -5 11 C-3.35 7.37 -1.7 3.74 0 0 Z " fill="#3C2B11" transform="translate(386,111)"/>
<path d="M0 0 C0.66 0 1.32 0 2 0 C1.25 5.75 1.25 5.75 -1 8 C-1.93065133 5.39417629 -2.14917407 4.35801776 -1.0625 1.75 C-0.711875 1.1725 -0.36125 0.595 0 0 Z " fill="#31240D" transform="translate(378,130)"/>
<path d="M0 0 C0.66 0 1.32 0 2 0 C2 0.99 2 1.98 2 3 C1.01 2.67 0.02 2.34 -1 2 C-0.67 1.34 -0.34 0.68 0 0 Z " fill="#9E7841" transform="translate(315,52)"/>
<path d="M0 0 C0.99 0 1.98 0 3 0 C2.67 0.99 2.34 1.98 2 3 C1.34 2.67 0.68 2.34 0 2 C0 1.34 0 0.68 0 0 Z " fill="#9D7841" transform="translate(361,50)"/>
<path d="M0 0 C0.99 0 1.98 0 3 0 C3 0.66 3 1.32 3 2 C2.01 2 1.02 2 0 2 C0 1.34 0 0.68 0 0 Z " fill="#9D7842" transform="translate(319,76)"/>
<path d="M0 0 C0.99 0 1.98 0 3 0 C3 0.66 3 1.32 3 2 C2.01 2 1.02 2 0 2 C0 1.34 0 0.68 0 0 Z " fill="#9E7B42" transform="translate(356,74)"/>
<path d="M0 0 C0.99 0 1.98 0 3 0 C3 0.66 3 1.32 3 2 C2.01 2 1.02 2 0 2 C0 1.34 0 0.68 0 0 Z " fill="#A07840" transform="translate(379,67)"/>
<path d="M0 0 C0.99 0.33 1.98 0.66 3 1 C2.34 1.66 1.68 2.32 1 3 C0.67 2.01 0.34 1.02 0 0 Z " fill="#A07843" transform="translate(357,66)"/>
<path d="M0 0 C0.99 0 1.98 0 3 0 C3 0.66 3 1.32 3 2 C2.01 2 1.02 2 0 2 C0 1.34 0 0.68 0 0 Z " fill="#9E7942" transform="translate(320,60)"/>
<path d="M0 0 C0.99 0 1.98 0 3 0 C3 0.66 3 1.32 3 2 C2.01 2 1.02 2 0 2 C0 1.34 0 0.68 0 0 Z " fill="#9D7C42" transform="translate(370,58)"/>
<path d="M0 0 C0.66 0 1.32 0 2 0 C2 0.99 2 1.98 2 3 C1.34 3 0.68 3 0 3 C0 2.01 0 1.02 0 0 Z " fill="#9E7840" transform="translate(319,52)"/>
<path d="M0 0 C0.66 0 1.32 0 2 0 C1.67 0.99 1.34 1.98 1 3 C0.67 2.01 0.34 1.02 0 0 Z " fill="#9F7841" transform="translate(362,121)"/>
<path d="M0 0 C0.66 0 1.32 0 2 0 C2 0.66 2 1.32 2 2 C1.01 1.67 0.02 1.34 -1 1 C-0.67 0.67 -0.34 0.34 0 0 Z " fill="#9E7B45" transform="translate(350,87)"/>
<path d="M0 0 C0.99 0.33 1.98 0.66 3 1 C2.01 1.33 1.02 1.66 0 2 C0 1.34 0 0.68 0 0 Z " fill="#9E7945" transform="translate(316,79)"/>
<path d="M0 0 C0.66 0.66 1.32 1.32 2 2 C1.01 2 0.02 2 -1 2 C-0.67 1.34 -0.34 0.68 0 0 Z " fill="#A07941" transform="translate(354,63)"/>
<path d="M0 0 C0.66 0 1.32 0 2 0 C2 0.66 2 1.32 2 2 C1.34 2 0.68 2 0 2 C0 1.34 0 0.68 0 0 Z " fill="#9E7941" transform="translate(359,132)"/>
<path d="M0 0 C0.66 0 1.32 0 2 0 C2 0.66 2 1.32 2 2 C1.34 2 0.68 2 0 2 C0 1.34 0 0.68 0 0 Z " fill="#9E7942" transform="translate(386,131)"/>
<path d="M0 0 C0.66 0 1.32 0 2 0 C2 0.66 2 1.32 2 2 C1.34 2 0.68 2 0 2 C0 1.34 0 0.68 0 0 Z " fill="#9E7941" transform="translate(359,117)"/>
<path d="M0 0 C0.66 0 1.32 0 2 0 C2 0.66 2 1.32 2 2 C1.34 2 0.68 2 0 2 C0 1.34 0 0.68 0 0 Z " fill="#9E7942" transform="translate(364,116)"/>
<path d="M0 0 C0.66 0 1.32 0 2 0 C2 0.66 2 1.32 2 2 C1.34 2 0.68 2 0 2 C0 1.34 0 0.68 0 0 Z " fill="#9E7942" transform="translate(381,114)"/>
<path d="M0 0 C0.66 0 1.32 0 2 0 C2 0.66 2 1.32 2 2 C1.34 2 0.68 2 0 2 C0 1.34 0 0.68 0 0 Z " fill="#9F7842" transform="translate(332,92)"/>
<path d="M0 0 C0.66 0 1.32 0 2 0 C2 0.66 2 1.32 2 2 C1.34 2 0.68 2 0 2 C0 1.34 0 0.68 0 0 Z " fill="#9F7943" transform="translate(337,89)"/>
<path d="M0 0 C0.66 0 1.32 0 2 0 C2 0.66 2 1.32 2 2 C1.34 2 0.68 2 0 2 C0 1.34 0 0.68 0 0 Z " fill="#9E7841" transform="translate(329,87)"/>
<path d="M0 0 C0.66 0 1.32 0 2 0 C2 0.66 2 1.32 2 2 C1.34 2 0.68 2 0 2 C0 1.34 0 0.68 0 0 Z " fill="#9F7A43" transform="translate(383,67)"/>
<path d="M0 0 C0.66 0 1.32 0 2 0 C2 0.66 2 1.32 2 2 C1.34 2 0.68 2 0 2 C0 1.34 0 0.68 0 0 Z " fill="#A07842" transform="translate(355,45)"/>
<path d="M0 0 C0.66 0 1.32 0 2 0 C2 0.66 2 1.32 2 2 C1.34 2 0.68 2 0 2 C0 1.34 0 0.68 0 0 Z " fill="#9F7841" transform="translate(360,44)"/>
<path d="M0 0 C0.99 0.495 0.99 0.495 2 1 C1.01 1.495 1.01 1.495 0 2 C0 1.34 0 0.68 0 0 Z " fill="#9D7843" transform="translate(351,101)"/>
<path d="M0 0 C0.33 0.66 0.66 1.32 1 2 C0.34 1.67 -0.32 1.34 -1 1 C-0.67 0.67 -0.34 0.34 0 0 Z " fill="#9F7842" transform="translate(349,92)"/>
</svg>
